<svg xmlns="http://www.w3.org/2000/svg" viewBox="0 0 800 1000" width="800" height="1000">
<defs>
<radialGradient id="glow" cx="50%" cy="40%" r="60%"><stop offset="0%" stop-color="#D6B56D" stop-opacity="0.28"/><stop offset="60%" stop-color="#D6B56D" stop-opacity="0.05"/><stop offset="100%" stop-color="#D6B56D" stop-opacity="0"/></radialGradient>
<linearGradient id="frame" x1="0" y1="0" x2="1" y2="1"><stop offset="0%" stop-color="#D6B56D"/><stop offset="100%" stop-color="#B7934A"/></linearGradient>
</defs>
<rect width="800" height="1000" fill="#F4ECDE"/>
<rect width="800" height="1000" fill="url(#glow)"/>
<rect x="36" y="36" width="728" height="928" rx="26" fill="none" stroke="url(#frame)" stroke-width="1.5" opacity="0.8"/>
<text x="400" y="135" text-anchor="middle" font-family="Georgia, 'Cormorant Garamond', serif" font-size="46" letter-spacing="6" fill="#1F1B18">H<tspan fill="#B7934A">H</tspan></text>
<text x="400" y="168" text-anchor="middle" font-family="Georgia, 'Cormorant Garamond', serif" font-size="24" font-style="italic" fill="#6B635B">Jewelry</text>
<line x1="345" y1="190" x2="455" y2="190" stroke="#D6B56D" stroke-width="1"/>
<g transform="translate(300,345)"><g fill="none" stroke="#D6B56D" stroke-width="2.4" stroke-linecap="round" stroke-linejoin="round"><path d="M60 30 q40 25 80 0 v95 q-40 28 -80 0 z"/><path d="M70 55 q30 18 60 0"/><path d="M70 80 q30 18 60 0"/><path d="M70 105 q30 18 60 0"/></g></g>
<text x="400" y="775" text-anchor="middle" font-family="Georgia, 'Cormorant Garamond', serif" font-size="58" fill="#1F1B18">Lina</text>
<text x="400" y="825" text-anchor="middle" font-family="'Jost', Helvetica, sans-serif" font-size="20" letter-spacing="6" fill="#6B635B">SCARVES</text>
<line x1="330" y1="868" x2="470" y2="868" stroke="#D6B56D" stroke-width="1"/>
<text x="400" y="908" text-anchor="middle" font-family="'Jost', Helvetica, sans-serif" font-size="15" letter-spacing="4" fill="#B7934A">HH JEWELRY</text>
</svg>